<?xml version="1.0" standalone="no"?>
<!DOCTYPE svg PUBLIC "-//W3C//DTD SVG 20010904//EN"
 "http://www.w3.org/TR/2001/REC-SVG-20010904/DTD/svg10.dtd">
<svg version="1.0" xmlns="http://www.w3.org/2000/svg"
 width="70.000000pt" height="70.000000pt" viewBox="0 0 70.000000 70.000000"
 preserveAspectRatio="xMidYMid meet">
<metadata>
Created by potrace 1.14, written by Peter Selinger 2001-2017
</metadata>
<g transform="translate(0.000000,70.000000) scale(0.100000,-0.100000)"
fill="#000000" stroke="none">
<path d="M125 640 c-3 -5 11 -41 30 -81 l36 -71 -40 -39 c-61 -59 -75 -93 -75
-174 0 -80 14 -114 72 -171 58 -58 113 -79 207 -79 94 0 149 21 207 79 58 57
72 91 72 171 0 80 -14 114 -72 171 -72 71 -196 101 -293 71 l-46 -14 -36 73
c-35 71 -49 85 -62 64z"/>
</g>
</svg>
